<svg width="20" height="21" viewBox="0 0 20 21" fill="none" xmlns="http://www.w3.org/2000/svg">
<g clip-path="url(#clip0_1_142)">
<path d="M17.2667 6.12812C16.7333 2.39479 13 0.528124 9.06667 0.99479C5.93334 1.32812 2.8 3.86146 2.66667 7.46146C2.6 9.66146 3.2 11.3281 5.33334 11.7948C6.26667 10.1948 5.06667 9.86146 4.86667 8.66146C4.06667 3.86146 10.4 0.661457 13.6667 3.99479C15.9333 6.32812 14.4667 13.3948 10.8 12.6615C7.26667 11.9281 12.5333 6.32812 9.73334 5.19479C7.46667 4.26146 6.26667 7.92812 7.33334 9.79479C6.66667 12.9281 5.33334 15.8615 5.86667 19.7948C7.66667 18.4615 8.26667 15.9948 8.73334 13.3948C9.6 13.9281 10.1333 14.5281 11.2667 14.5948C15.4667 14.9281 17.8 10.3281 17.2667 6.12812Z" fill="black"/>
</g>
<defs>
<clipPath id="clip0_1_142">
<rect width="20" height="20" fill="white" transform="translate(0 0.328125)"/>
</clipPath>
</defs>
</svg>
