<svg width="20" height="21" viewBox="0 0 20 21" fill="none" xmlns="http://www.w3.org/2000/svg">
<path d="M2.26666 6.0615C2.26666 7.52817 2.73333 8.6615 3.73333 9.2615C4.53333 9.79483 5.46666 9.8615 5.93333 9.8615C6.06666 9.8615 6.13333 9.8615 6.2 9.8615C6.2 9.8615 6.06666 10.8615 6.8 11.8615H6.73333C5.46666 11.8615 1.26666 12.1282 1.26666 15.5948C1.26666 19.1282 5.13333 19.2615 5.93333 19.2615C6 19.2615 6 19.2615 6 19.2615C6 19.2615 6.06666 19.2615 6.13333 19.2615C6.6 19.2615 7.93333 19.1948 9.13333 18.5948C10.6667 17.8615 11.4667 16.5282 11.4667 14.7282C11.4667 12.9948 10.2667 11.9282 9.4 11.1282C8.86666 10.6615 8.4 10.2615 8.4 9.8615C8.4 9.4615 8.73333 9.12817 9.13333 8.79483C9.8 8.19483 10.4667 7.32817 10.4667 5.6615C10.4667 4.19483 10.2667 3.19483 9.13333 2.59483C9.33333 2.52817 9.8 2.4615 10 2.4615C10.6 2.39483 11.5333 2.2615 11.5333 1.79483V1.6615H6.93333C6.86666 1.6615 2.26666 1.8615 2.26666 6.0615ZM9.73333 15.0615C9.8 16.4615 8.6 17.5282 6.8 17.6615C4.93333 17.7948 3.46666 16.9948 3.4 15.5948C3.33333 14.9282 3.66666 14.2615 4.26666 13.7282C4.86666 13.1948 5.66666 12.8615 6.53333 12.7948C6.66666 12.7948 6.73333 12.7948 6.86666 12.7948C8.46666 12.7282 9.6 13.7282 9.73333 15.0615ZM8.53333 5.0615C9 6.6615 8.33333 8.32817 7.2 8.59483C7.06666 8.6615 6.93333 8.6615 6.8 8.6615C5.8 8.6615 4.8 7.6615 4.46666 6.2615C4.26666 5.52817 4.26666 4.8615 4.53333 4.19483C4.73333 3.52817 5.2 3.12817 5.66666 2.99483C5.8 2.92817 5.93333 2.92817 6.06666 2.92817C7.26666 2.92817 8 3.39483 8.53333 5.0615ZM16.2667 8.4615V5.4615H14.2667V8.4615H11.2667V10.4615H14.2667V13.4615H16.2667V10.4615H19.2667V8.4615H16.2667Z" fill="black"/>
</svg>
