<svg width="20" height="21" viewBox="0 0 20 21" fill="none" xmlns="http://www.w3.org/2000/svg">
<path d="M14.6 7.92816C14.6 7.92816 13.1333 12.5948 13 12.9282C12.9333 12.5282 11.8667 4.19482 11.8667 4.19482C9.33333 4.19482 8 5.99482 7.26666 7.86149C7.26666 7.86149 5.46667 12.5282 5.33333 12.9282C5.33333 12.5948 5.06667 7.92816 5.06667 7.92816C4.93333 5.59482 2.8 4.19482 1.06667 4.19482L3.13333 16.7948C5.8 16.7948 7.2 14.9948 7.93333 13.1282C7.93333 13.1282 9.53333 8.99482 9.6 8.86149C9.6 9.06149 10.7333 16.8615 10.7333 16.8615C13.4 16.8615 14.8 15.1948 15.6 13.3282L19.3333 4.19482C16.7333 4.19482 15.3333 5.99482 14.6 7.92816Z" fill="black"/>
</svg>
